<?xml version="1.0"?>
<svg xmlns="http://www.w3.org/2000/svg" xmlns:xlink="http://www.w3.org/1999/xlink" xmlns:svgjs="http://svgjs.com/svgjs" version="1.1" width="512" height="512" x="0" y="0" viewBox="0 0 512 512" style="enable-background:new 0 0 512 512" xml:space="preserve" class=""><g>
<g xmlns="http://www.w3.org/2000/svg">
	<path d="M447.146,8.772H214.992c-30.919,0-56.071,25.151-56.071,56.071v58.297h87.314V58.299h200.911   c3.614,0,6.545,2.936,6.545,6.545v232.155c0,3.613-2.931,6.545-6.545,6.545h-58.293v49.525h58.293   c30.926,0,56.072-25.147,56.072-56.07V64.844C503.219,33.924,478.072,8.772,447.146,8.772z" fill="#59a681" data-original="#000000" style="" class=""/>
	<path d="M299.762,156.158H67.625c-30.924,0-56.071,25.151-56.071,56.07v232.156c0,30.923,25.147,56.07,56.071,56.07h232.137   c30.924,0,56.071-25.147,56.071-56.07V212.229C355.833,181.31,330.686,156.158,299.762,156.158z M306.306,444.385   c0,3.612-2.931,6.544-6.544,6.544H98.818V205.685h200.943c3.613,0,6.544,2.936,6.544,6.544V444.385z" fill="#59a681" data-original="#000000" style="" class=""/>
</g>
</g></svg>
